<?xml version="1.0" encoding="iso-8859-1"?>
<!-- Generator: Adobe Illustrator 19.0.0, SVG Export Plug-In . SVG Version: 6.00 Build 0)  -->
<svg version="1.1" id="Layer_1" xmlns="http://www.w3.org/2000/svg" xmlns:xlink="http://www.w3.org/1999/xlink" x="0px" y="0px"
	 viewBox="0 0 512 512" style="enable-background:new 0 0 512 512;" xml:space="preserve">
<rect x="317.293" y="123.183" transform="matrix(0.7071 -0.7071 0.7071 0.7071 -20.9054 304.9312)" style="fill:#A5F2E5;" width="80.678" height="109.034"/>
<path d="M509.675,250.252l-156.46-156.46c-3.099-3.099-8.124-3.099-11.222,0l-68.274,68.274c-3.099,3.099-3.099,8.124,0,11.222
	l82.712,82.712l-82.712,82.712c-1.489,1.488-2.325,3.506-2.325,5.611c0,2.105,0.836,4.123,2.325,5.611l68.274,68.273
	c1.549,1.549,3.581,2.325,5.611,2.325c2.03,0,4.062-0.775,5.611-2.325l38.181-38.181c3.099-3.099,3.099-8.124,0-11.222
	c-3.099-3.099-8.124-3.099-11.222,0l-32.57,32.57l-57.051-57.051l145.238-145.238l57.051,57.051l-74.889,74.889
	c-3.099,3.099-3.099,8.124,0,11.222c3.099,3.099,8.124,3.099,11.222,0l80.5-80.5c1.489-1.488,2.325-3.507,2.325-5.611
	c0-0.044-0.005-0.089-0.006-0.133C512.03,253.927,511.26,251.837,509.675,250.252z M424.705,187.727l-57.051,57.051l-77.101-77.101
	l57.051-57.051L424.705,187.727z"/>
<path style="fill:#62D9C7;" d="M417.952,331.026l74.889-74.889l-57.051-57.051L290.553,344.324l57.051,57.051l32.57-32.57
	c3.099-3.099,8.124-3.099,11.222,0l26.556-26.556C414.853,339.15,414.853,334.125,417.952,331.026z"/>
<rect x="114.022" y="279.777" transform="matrix(-0.7071 0.7071 -0.7071 -0.7071 499.8914 461.5257)" style="fill:#A5F2E5;" width="80.678" height="109.034"/>
<path style="fill:#62D9C7;" d="M94.047,180.974l-74.889,74.889l57.051,57.051l145.238-145.238l-57.051-57.051l-32.57,32.571
	c-3.099,3.099-8.124,3.099-11.222,0l0,0l-26.556,26.556C97.147,172.851,97.146,177.876,94.047,180.974z"/>
<path d="M240.605,167.677c0-2.105-0.836-4.123-2.325-5.611l-68.274-68.274c-1.488-1.489-3.506-2.325-5.611-2.325
	c-2.105,0-4.123,0.836-5.611,2.325l-38.181,38.182c-3.099,3.099-3.099,8.123,0,11.222l0,0c3.099,3.099,8.124,3.099,11.222,0
	l32.57-32.571l57.051,57.051L76.208,312.915l-57.051-57.051l74.889-74.889c3.099-3.099,3.099-8.123,0-11.222l0,0
	c-3.099-3.099-8.124-3.099-11.222,0l-80.5,80.499c-1.586,1.585-2.354,3.675-2.318,5.753C0.005,256.048,0,256.093,0,256.137
	c0,2.105,0.836,4.123,2.325,5.611l156.46,156.46c1.549,1.549,3.581,2.325,5.611,2.325c2.03,0,4.062-0.775,5.611-2.325l68.274-68.273
	c1.489-1.488,2.325-3.507,2.325-5.611c0-2.105-0.836-4.123-2.325-5.611L155.568,256l82.712-82.712
	C239.769,171.8,240.605,169.782,240.605,167.677z M87.294,324.273l57.051-57.051l77.101,77.101l-57.051,57.051L87.294,324.273z"/>
<g>
</g>
<g>
</g>
<g>
</g>
<g>
</g>
<g>
</g>
<g>
</g>
<g>
</g>
<g>
</g>
<g>
</g>
<g>
</g>
<g>
</g>
<g>
</g>
<g>
</g>
<g>
</g>
<g>
</g>
</svg>
