<svg xmlns="http://www.w3.org/2000/svg" width="512" height="512" viewBox="0 0 512 512" version="1.1"><path d="M 127.919 92.809 C 110.814 97.337, 96.285 112.344, 92.490 129.402 C 91.169 135.336, 90.949 142.280, 91.199 170.109 L 91.500 203.662 94.529 208.581 C 104.581 224.905, 127.418 224.905, 137.471 208.581 L 140.500 203.662 140.802 172.383 L 141.105 141.105 172.383 140.802 L 203.662 140.500 208.581 137.471 C 224.905 127.418, 224.905 104.581, 208.581 94.529 L 203.661 91.500 169.081 91.283 C 138.929 91.094, 133.657 91.290, 127.919 92.809 M 307.748 92.427 C 302.217 94.401, 297.404 98.457, 294.272 103.784 C 291.908 107.806, 291.500 109.604, 291.500 116 C 291.500 122.396, 291.908 124.194, 294.272 128.216 C 295.797 130.810, 298.609 134.125, 300.520 135.583 C 307.135 140.628, 309.262 140.909, 341.250 140.956 L 371 141 371 170.322 C 371 203.964, 371.437 206.490, 378.474 213.526 C 388.255 223.308, 403.745 223.308, 413.526 213.526 C 420.643 206.410, 421 204.227, 421 167.871 C 421 148.539, 420.567 134.024, 419.895 130.799 C 415.987 112.059, 399.941 96.013, 381.201 92.105 C 373.180 90.433, 312.593 90.698, 307.748 92.427 M 107.748 292.365 C 102.153 294.454, 97.379 298.498, 94.272 303.784 L 91.500 308.500 91.184 341.500 C 90.973 363.530, 91.250 376.495, 92.019 380.500 C 95.687 399.618, 111.735 415.919, 130.799 419.895 C 134.024 420.567, 148.539 421, 167.871 421 C 204.227 421, 206.410 420.643, 213.526 413.526 C 223.308 403.745, 223.308 388.255, 213.526 378.474 C 206.490 371.437, 203.964 371, 170.322 371 L 141 371 140.956 341.250 C 140.909 309.262, 140.628 307.135, 135.583 300.520 C 129.658 292.752, 116.803 288.986, 107.748 292.365 M 387.086 292.717 C 381.182 294.802, 374.729 301.411, 372.656 307.496 C 371.263 311.585, 371 317.009, 371 341.678 L 371 371 341.678 371 C 308.036 371, 305.510 371.437, 298.474 378.474 C 288.681 388.266, 288.691 403.744, 298.496 413.549 C 305.854 420.907, 307.806 421.196, 347.220 420.770 C 379.602 420.420, 381.828 420.277, 387.419 418.195 C 401.936 412.790, 412.791 401.953, 418.168 387.499 C 420.284 381.809, 420.419 379.732, 420.770 347.220 C 421.196 307.806, 420.907 305.854, 413.549 298.496 C 406.587 291.534, 396.606 289.354, 387.086 292.717" stroke="none" fill="#fafbfb" fill-rule="evenodd"/><path d="M 126.500 1.441 C 62.144 11.677, 11.200 62.830, 1.455 127 C -0.684 141.084, -0.684 370.916, 1.455 385 C 8.773 433.187, 39.352 474.858, 83.500 496.804 C 93.753 501.901, 103.832 505.512, 117 508.805 L 127.500 511.431 250 511.776 C 337.133 512.022, 375.171 511.795, 381.751 510.989 C 434.467 504.530, 481.470 468.065, 501.450 418.124 C 505.759 407.354, 509.789 392.484, 510.637 384.222 C 510.992 380.769, 511.669 377.705, 512.141 377.413 C 512.613 377.121, 513 321.982, 513 254.882 C 513 173.803, 512.665 133.089, 512 133.500 C 511.415 133.861, 511 132.830, 511 131.017 C 511 121.421, 503.642 97.058, 496.384 82.620 C 488.609 67.156, 481.422 57.357, 468.033 43.967 C 450.032 25.966, 432.860 15.212, 410 7.623 C 387.232 0.064, 398.686 0.616, 259.500 0.380 C 162.332 0.215, 132.719 0.451, 126.500 1.441 M 127.919 92.809 C 110.814 97.337, 96.285 112.344, 92.490 129.402 C 91.169 135.336, 90.949 142.280, 91.199 170.109 L 91.500 203.662 94.529 208.581 C 104.581 224.905, 127.418 224.905, 137.471 208.581 L 140.500 203.662 140.802 172.383 L 141.105 141.105 172.383 140.802 L 203.662 140.500 208.581 137.471 C 224.905 127.418, 224.905 104.581, 208.581 94.529 L 203.661 91.500 169.081 91.283 C 138.929 91.094, 133.657 91.290, 127.919 92.809 M 307.748 92.427 C 302.217 94.401, 297.404 98.457, 294.272 103.784 C 291.908 107.806, 291.500 109.604, 291.500 116 C 291.500 122.396, 291.908 124.194, 294.272 128.216 C 295.797 130.810, 298.609 134.125, 300.520 135.583 C 307.135 140.628, 309.262 140.909, 341.250 140.956 L 371 141 371 170.322 C 371 203.964, 371.437 206.490, 378.474 213.526 C 388.255 223.308, 403.745 223.308, 413.526 213.526 C 420.643 206.410, 421 204.227, 421 167.871 C 421 148.539, 420.567 134.024, 419.895 130.799 C 415.987 112.059, 399.941 96.013, 381.201 92.105 C 373.180 90.433, 312.593 90.698, 307.748 92.427 M 0.484 256 C 0.484 323.375, 0.604 350.938, 0.750 317.250 C 0.896 283.563, 0.896 228.438, 0.750 194.750 C 0.604 161.063, 0.484 188.625, 0.484 256 M 107.748 292.365 C 102.153 294.454, 97.379 298.498, 94.272 303.784 L 91.500 308.500 91.184 341.500 C 90.973 363.530, 91.250 376.495, 92.019 380.500 C 95.687 399.618, 111.735 415.919, 130.799 419.895 C 134.024 420.567, 148.539 421, 167.871 421 C 204.227 421, 206.410 420.643, 213.526 413.526 C 223.308 403.745, 223.308 388.255, 213.526 378.474 C 206.490 371.437, 203.964 371, 170.322 371 L 141 371 140.956 341.250 C 140.909 309.262, 140.628 307.135, 135.583 300.520 C 129.658 292.752, 116.803 288.986, 107.748 292.365 M 387.086 292.717 C 381.182 294.802, 374.729 301.411, 372.656 307.496 C 371.263 311.585, 371 317.009, 371 341.678 L 371 371 341.678 371 C 308.036 371, 305.510 371.437, 298.474 378.474 C 288.681 388.266, 288.691 403.744, 298.496 413.549 C 305.854 420.907, 307.806 421.196, 347.220 420.770 C 379.602 420.420, 381.828 420.277, 387.419 418.195 C 401.936 412.790, 412.791 401.953, 418.168 387.499 C 420.284 381.809, 420.419 379.732, 420.770 347.220 C 421.196 307.806, 420.907 305.854, 413.549 298.496 C 406.587 291.534, 396.606 289.354, 387.086 292.717" stroke="none" fill="#126bd7" fill-rule="evenodd"/></svg>